<?xml version="1.0" encoding="utf-8"?>
<!-- Generator: Adobe Illustrator 19.2.1, SVG Export Plug-In . SVG Version: 6.00 Build 0)  -->
<svg version="1.1" id="layer" xmlns="http://www.w3.org/2000/svg" xmlns:xlink="http://www.w3.org/1999/xlink" x="0px" y="0px"
	 viewBox="0 0 652 652" style="enable-background:new 0 0 652 652;" xml:space="preserve">
<style type="text/css">
	.st0{fill:#1046A8;}
</style>
<g id="Layer_x0020_1">
	<g id="_1930444269488">
		<g>
			<path class="st0" d="M316,68L106.7,188.8l91.3,52.7L316,173.5l117.9,68.1l91.3-52.7L316,68z"/>
			<path class="st0" d="M316,195.8l-98.6,56.9l98.6,56.9l98.6-56.9L316,195.8z"/>
		</g>
		<g>
			<path class="st0" d="M325.6,326.4v113.9l98.6-56.9V269.4L325.6,326.4z"/>
			<path class="st0" d="M306.4,326.4v113.9l-98.6-56.9V269.4L306.4,326.4z"/>
			<path class="st0" d="M443.6,394.4l-117.9,68.1V568l209.3-120.8V205.5l-91.3,52.7V394.4z"/>
			<path class="st0" d="M188.4,394.4l117.9,68.1V568L97.1,447.2V205.5l91.3,52.7V394.4z"/>
		</g>
	</g>
</g>
</svg>
