<?xml version="1.0" standalone="no"?>
<!DOCTYPE svg PUBLIC "-//W3C//DTD SVG 20010904//EN"
 "http://www.w3.org/TR/2001/REC-SVG-20010904/DTD/svg10.dtd">
<svg version="1.0" xmlns="http://www.w3.org/2000/svg"
 width="512.000000pt" height="512.000000pt" viewBox="0 0 512.000000 512.000000"
 preserveAspectRatio="xMidYMid meet">
<metadata>
Created by potrace 1.15, written by Peter Selinger 2001-2017
</metadata>
<g transform="translate(0.000000,512.000000) scale(0.100000,-0.100000)"
fill="#000000" stroke="none">
<path d="M322 4398 l3 -403 27 -57 c34 -73 103 -142 176 -176 l57 -27 403 -3
403 -3 -3 404 -3 404 -35 69 c-41 80 -109 141 -194 173 -54 20 -75 21 -447 21
l-390 0 3 -402z m833 371 c73 -27 156 -104 192 -177 l28 -57 3 -398 3 -398
-398 3 -398 3 -56 28 c-67 32 -142 109 -172 175 -21 45 -22 60 -25 445 l-3
397 385 0 c365 0 388 -1 441 -21z"/>
<path d="M467 4653 c-4 -3 -7 -142 -7 -307 0 -270 2 -305 19 -341 23 -51 89
-111 138 -125 25 -7 138 -10 333 -8 l295 3 3 295 c2 195 -1 308 -8 333 -14 49
-74 115 -125 138 -36 17 -71 19 -341 19 -165 0 -304 -3 -307 -7z m636 -16 c49
-21 98 -67 118 -112 17 -36 19 -71 19 -342 l0 -303 -302 0 c-339 0 -355 3
-412 71 -55 64 -56 74 -56 399 l0 300 300 0 c230 0 308 -3 333 -13z"/>
<path d="M630 4310 c0 -272 -2 -270 270 -270 l180 0 0 180 c0 272 2 270 -270
270 l-180 0 0 -180z m406 136 l34 -34 0 -181 0 -181 -181 0 -181 0 -34 34 -34
34 0 181 0 181 181 0 181 0 34 -34z"/>
<path d="M3975 4782 c-74 -26 -138 -74 -179 -136 -62 -94 -66 -125 -66 -544
l0 -373 408 3 407 3 63 34 c71 39 125 94 162 167 l25 49 5 408 5 407 -390 0
c-344 -1 -396 -3 -440 -18z m813 -389 l-3 -398 -26 -56 c-34 -72 -96 -134
-168 -168 l-56 -26 -398 -3 -398 -3 3 393 3 393 26 56 c30 64 85 129 136 160
73 45 97 48 501 48 l383 1 -3 -397z"/>
<path d="M4099 4475 c-50 -27 -59 -65 -59 -260 l0 -176 195 3 195 3 27 28 28
27 5 195 5 195 -185 0 c-140 -1 -191 -4 -211 -15z m381 -177 c-1 -254 5 -248
-255 -248 l-176 0 3 186 3 186 33 29 32 29 180 0 180 0 0 -182z"/>
<path d="M2040 4153 c-25 -32 -20 -69 12 -95 44 -38 111 -7 111 50 0 70 -80
99 -123 45z"/>
<path d="M2510 3850 c-42 -42 -12 -120 48 -120 46 0 72 25 72 70 0 29 -6 43
-22 54 -31 22 -74 20 -98 -4z"/>
<path d="M2374 3710 c-11 -4 -26 -22 -33 -38 -10 -25 -10 -35 3 -60 34 -67
136 -40 136 36 0 45 -61 81 -106 62z"/>
<path d="M960 2920 c-24 -24 -26 -67 -4 -98 11 -16 25 -22 54 -22 29 0 43 6
54 22 36 51 5 118 -54 118 -17 0 -39 -9 -50 -20z"/>
<path d="M1270 2920 c-24 -24 -26 -67 -4 -98 11 -16 25 -22 54 -22 29 0 43 6
54 22 36 51 5 118 -54 118 -17 0 -39 -9 -50 -20z"/>
<path d="M1630 2873 c0 -14 2 -15 9 -4 22 34 31 -4 31 -129 0 -78 4 -131 10
-135 6 -4 28 9 50 29 44 39 86 51 166 44 121 -10 204 -133 176 -264 -13 -65
-46 -112 -99 -146 -32 -19 -51 -23 -118 -23 -74 0 -84 2 -127 32 -30 21 -54
49 -70 80 -22 46 -23 56 -22 273 1 218 1 221 -8 95 -12 -171 -5 -308 17 -363
21 -52 85 -109 139 -123 50 -14 143 -6 182 14 77 40 118 112 119 207 0 132
-77 220 -199 228 -76 5 -124 -9 -167 -49 -17 -16 -33 -29 -35 -29 -2 0 -5 62
-6 138 -3 134 -4 137 -25 140 -17 3 -23 -2 -23 -15z"/>
<path d="M1439 2775 c-49 -27 -45 -103 6 -127 81 -37 143 87 64 127 -34 18
-37 18 -70 0z"/>
<path d="M3772 2780 c-49 -20 -54 -95 -7 -126 73 -48 147 61 79 115 -29 23
-38 24 -72 11z"/>
<path d="M4393 2780 c-47 -19 -56 -78 -17 -117 20 -20 31 -24 57 -19 39 8 57
30 57 70 0 37 -7 49 -37 65 -25 13 -30 13 -60 1z"/>
<path d="M2335 2672 c-103 -48 -149 -169 -114 -297 14 -50 84 -120 136 -134
88 -25 207 1 255 55 62 70 75 187 31 275 -42 81 -91 111 -190 116 -61 3 -87 0
-118 -15z m173 2 c43 -9 111 -69 133 -118 38 -84 17 -198 -47 -258 -96 -90
-268 -72 -340 35 -26 38 -29 50 -29 129 0 80 2 89 30 129 53 75 144 105 253
83z"/>
<path d="M2390 2649 c-89 -26 -146 -111 -138 -204 16 -194 267 -244 353 -71
31 62 31 107 1 173 -38 81 -133 126 -216 102z m92 -9 c105 -30 164 -149 123
-248 -32 -75 -86 -112 -165 -112 -213 0 -248 298 -42 360 37 11 42 11 84 0z"/>
<path d="M2833 2683 c-10 -3 -13 -57 -13 -218 0 -222 4 -244 44 -229 15 6 16
30 14 228 -3 230 -4 236 -45 219z m32 -224 c0 -184 -2 -214 -15 -214 -13 0
-15 31 -18 205 -1 112 0 211 3 218 3 8 11 12 18 9 9 -3 12 -55 12 -218z"/>
<path d="M1835 2655 c-5 -2 -22 -6 -37 -9 -74 -17 -134 -115 -126 -206 12
-127 143 -206 261 -156 59 24 117 111 117 176 0 61 -53 146 -109 175 -29 14
-90 26 -106 20z m106 -30 c15 -8 38 -28 53 -45 99 -118 15 -300 -139 -300
-134 0 -215 141 -154 267 44 90 149 124 240 78z"/>
<path d="M1270 2300 c-24 -24 -26 -67 -4 -98 11 -16 25 -22 54 -22 44 0 70 26
70 72 0 58 -78 90 -120 48z"/>
<path d="M3602 2304 c-28 -20 -31 -83 -4 -107 42 -38 122 -7 122 47 0 60 -68
95 -118 60z"/>
<path d="M957 2142 c-21 -23 -22 -76 -1 -96 32 -32 92 -28 116 8 13 19 9 60
-8 84 -20 28 -83 31 -107 4z"/>
<path d="M2816 1828 c-35 -49 0 -118 58 -118 56 0 89 86 48 123 -28 25 -87 22
-106 -5z"/>
<path d="M4366 1518 c-23 -32 -20 -65 9 -93 47 -48 115 -22 115 44 0 47 -24
71 -73 71 -26 0 -40 -6 -51 -22z"/>
<path d="M582 1374 c-76 -20 -157 -77 -199 -139 -61 -94 -63 -107 -63 -534 l0
-386 407 5 c389 5 410 6 453 26 72 34 135 97 172 172 l33 67 3 402 3 403 -378
-1 c-295 0 -390 -3 -431 -15z m796 -391 l-3 -398 -27 -57 c-31 -68 -95 -133
-164 -168 l-49 -25 -403 -3 -403 -3 3 398 3 398 25 48 c32 63 83 122 132 153
77 49 115 53 516 53 l373 1 -3 -397z"/>
<path d="M692 1063 c-56 -27 -62 -51 -62 -253 l0 -180 190 0 190 0 32 29 33
29 3 196 3 196 -178 0 c-144 0 -184 -4 -211 -17z m378 -169 c0 -259 6 -253
-247 -254 l-183 0 0 179 c0 167 1 180 21 205 12 15 31 32 43 36 11 5 99 9 194
9 l172 1 0 -176z"/>
<path d="M3755 1365 c-22 -21 -26 -32 -21 -58 8 -39 30 -57 71 -57 39 0 65 27
65 66 0 40 -18 62 -57 70 -26 5 -37 1 -58 -21z"/>
<path d="M2200 900 c-47 -47 -1 -129 65 -116 38 8 55 30 55 72 0 58 -78 86
-120 44z"/>
<path d="M3907 592 c-40 -44 -6 -122 52 -122 34 0 71 39 71 76 0 55 -86 87
-123 46z"/>
</g>
</svg>
