<?xml version="1.0" encoding="UTF-8"?>
<svg  viewBox="0 0 48 47" version="1.1" xmlns="http://www.w3.org/2000/svg" xmlns:xlink="http://www.w3.org/1999/xlink">
    <!-- Generator: Sketch 49.2 (51160) - http://www.bohemiancoding.com/sketch -->
    <title>Github</title>
    <desc>Created with Sketch.</desc>
    <defs></defs>
    <g id="Page-1" stroke="none" stroke-width="1" fill="none" fill-rule="evenodd">
        <g id="Social-Icons---Isolated" transform="translate(-276.000000, -952.000000)" fill="#3E75C3">
            <path d="M299.9985,952 C286.746,952 276,962.787092 276,976.096644 C276,986.740671 282.876,995.77183 292.4145,998.958412 C293.6145,999.179786 294.0525,998.435849 294.0525,997.797328 C294.0525,997.225068 294.0315,995.710086 294.0195,993.699648 C287.343,995.155898 285.9345,990.469394 285.9345,990.469394 C284.844,987.686405 283.2705,986.94548 283.2705,986.94548 C281.091,985.450075 283.4355,985.480194 283.4355,985.480194 C285.843,985.650366 287.1105,987.963499 287.1105,987.963499 C289.2525,991.645538 292.728,990.58234 294.096,989.964902 C294.3135,988.407754 294.9345,987.346062 295.62,986.743683 C290.2905,986.135281 284.688,984.069123 284.688,974.836167 C284.688,972.205279 285.6225,970.054788 287.1585,968.369634 C286.911,967.759726 286.0875,965.311058 287.3925,961.993458 C287.3925,961.993458 289.4085,961.345902 293.9925,964.46321 C295.908,963.928599 297.96,963.662047 300.0015,963.651505 C302.04,963.662047 304.0935,963.928599 306.0105,964.46321 C310.5915,961.345902 312.603,961.993458 312.603,961.993458 C313.9125,965.311058 313.089,967.759726 312.8415,968.369634 C314.3805,970.054788 315.309,972.205279 315.309,974.836167 C315.309,984.091712 309.6975,986.129257 304.3515,986.725612 C305.2125,987.469549 305.9805,988.939353 305.9805,991.18773 C305.9805,994.408949 305.9505,997.006706 305.9505,997.797328 C305.9505,998.441873 306.3825,999.191834 307.6005,998.9554 C317.13,995.762794 324,986.737659 324,976.096644 C324,962.787092 313.254,952 299.9985,952" id="Github"></path>
        </g>
    </g>
</svg>