<?xml version="1.0" standalone="no"?>
<!DOCTYPE svg PUBLIC "-//W3C//DTD SVG 20010904//EN"
 "http://www.w3.org/TR/2001/REC-SVG-20010904/DTD/svg10.dtd">
<svg version="1.0" xmlns="http://www.w3.org/2000/svg"
 width="224.000000pt" height="225.000000pt" viewBox="0 0 224.000000 225.000000"
 preserveAspectRatio="xMidYMid meet">
<metadata>
Created by potrace 1.15, written by Peter Selinger 2001-2017
</metadata>
<g transform="translate(0.000000,225.000000) scale(0.100000,-0.100000)"
fill="#000000" stroke="none">
<path d="M1515 2093 c-89 -20 -142 -58 -178 -127 -21 -40 -24 -85 -15 -206 l3
-35 -278 -5 -278 -5 -171 -297 -170 -298 97 -170 98 -170 74 128 75 127 -21
40 c-12 22 -21 43 -21 47 0 4 43 81 96 172 l96 166 197 0 c176 0 197 -2 207
-17 6 -10 50 -86 98 -170 l88 -152 -97 -170 -97 -170 -51 -3 -51 -3 -53 -90
c-30 -49 -63 -107 -74 -127 l-19 -38 197 0 198 0 173 300 173 300 -135 233
c-93 162 -131 237 -126 247 5 9 31 22 59 29 31 8 66 27 94 52 125 109 100 319
-46 387 -45 22 -109 33 -142 25z"/>
<path d="M290 1612 c-151 -262 -275 -484 -274 -492 0 -9 124 -230 275 -493
l274 -477 551 0 c429 0 554 3 562 13 6 6 132 223 281 482 161 279 269 476 266
485 -7 19 -325 572 -335 583 -4 5 -33 -34 -64 -86 -91 -155 -93 -121 23 -322
55 -96 101 -180 101 -185 0 -9 -395 -699 -408 -712 -5 -5 -161 -7 -348 -6
l-341 3 132 225 132 225 45 11 c125 32 192 114 192 234 0 97 -45 170 -134 216
-50 25 -153 24 -205 -3 -100 -53 -154 -167 -126 -270 l11 -41 -133 -229 c-73
-125 -137 -228 -143 -227 -10 1 -334 559 -334 575 0 11 388 687 408 712 14 15
37 17 226 17 l212 0 67 115 c37 63 67 117 67 120 0 3 -159 5 -352 5 l-353 0
-275 -478z"/>
</g>
</svg>
